<svg width="41" height="42" viewBox="0 0 41 42" fill="none" xmlns="http://www.w3.org/2000/svg">
<circle cx="20.35" cy="21.1499" r="20.25" fill="url(#paint0_linear)"/>
<path d="M24.9803 14.3999C22.571 14.3999 20.5868 15.1085 20.5868 15.9588V26.7299C20.5868 25.8795 22.571 25.1709 24.9803 25.1709C27.3896 25.1709 29.3737 25.8795 29.3737 26.7299V15.9588C29.3737 15.1085 27.3896 14.3999 24.9803 14.3999Z" stroke="white" stroke-width="2" stroke-miterlimit="10" stroke-linecap="round" stroke-linejoin="round"/>
<path d="M16.1935 14.3999C13.7842 14.3999 11.8 15.1085 11.8 15.9589V26.7299C11.8 25.8796 13.7842 25.1709 16.1935 25.1709C18.6028 25.1709 20.5869 25.8796 20.5869 26.7299V15.9589C20.4452 15.1085 18.6028 14.3999 16.1935 14.3999Z" stroke="white" stroke-width="2" stroke-miterlimit="10" stroke-linecap="round" stroke-linejoin="round"/>
<defs>
<linearGradient id="paint0_linear" x1="2.8931" y1="20.3399" x2="37.8069" y2="20.3399" gradientUnits="userSpaceOnUse">
<stop stop-color="#4E89E1"/>
<stop offset="1" stop-color="#C866F5"/>
</linearGradient>
</defs>
</svg>
