<svg width="7" height="7" viewBox="0 0 7 7" fill="none" xmlns="http://www.w3.org/2000/svg">
<path d="M6.3954 2.7836L4.7542 4.03215L5.38116 6.05241C5.41509 6.1618 5.37781 6.28156 5.28911 6.34926C5.24452 6.38304 5.19236 6.39991 5.13997 6.39991C5.08766 6.39991 5.03535 6.38303 4.99109 6.34926L3.34998 5.10062L1.70896 6.34908C1.61993 6.4168 1.49964 6.4168 1.41081 6.34908C1.32217 6.28156 1.28485 6.16178 1.31882 6.05241L1.9456 4.03206L0.304576 2.7836C0.215725 2.71599 0.178403 2.59626 0.212372 2.48684C0.246426 2.37744 0.343872 2.30341 0.453593 2.30341H2.48207L3.10886 0.283299C3.14283 0.173911 3.2402 0.0999146 3.35008 0.0999146C3.45996 0.0999146 3.55716 0.173911 3.59109 0.283299L4.21788 2.30341H6.24653C6.3562 2.30341 6.45361 2.37745 6.4877 2.48684C6.52137 2.59626 6.48401 2.71599 6.3954 2.7836Z" fill="gold"/>
</svg>
